<?xml version="1.0" standalone="no"?>
<!DOCTYPE svg PUBLIC "-//W3C//DTD SVG 20010904//EN"
 "http://www.w3.org/TR/2001/REC-SVG-20010904/DTD/svg10.dtd">
<svg version="1.0" xmlns="http://www.w3.org/2000/svg"
 width="512.000000pt" height="512.000000pt" viewBox="0 0 512.000000 512.000000"
 preserveAspectRatio="xMidYMid meet">
<metadata>
Created by potrace 1.11, written by Peter Selinger 2001-2013
</metadata>
<g transform="translate(0.000000,512.000000) scale(0.100000,-0.100000)"
fill="#000000" stroke="none">
<path d="M0 2560 l0 -2560 2560 0 2560 0 0 2560 0 2560 -2560 0 -2560 0 0
-2560z m4294 1716 c63 -48 78 -80 74 -166 -4 -89 -27 -131 -98 -178 l-45 -30
-215 -5 c-188 -5 -227 -8 -315 -31 -98 -25 -295 -113 -344 -153 l-23 -19 36
-73 c21 -40 54 -121 74 -179 37 -106 37 -108 37 -267 0 -136 -3 -171 -23 -238
-38 -134 -92 -228 -231 -411 -162 -213 -213 -251 -329 -244 -88 5 -138 31
-177 92 -26 44 -29 56 -30 139 0 72 4 101 20 132 44 88 134 148 272 178 139
31 203 79 262 195 41 81 55 172 48 312 -8 158 -48 280 -93 280 -17 0 -153
-102 -309 -231 -55 -46 -182 -164 -281 -262 -173 -169 -182 -181 -198 -236
-62 -220 -72 -712 -17 -836 40 -90 123 -160 227 -192 76 -22 248 -22 359 1
106 22 381 115 475 160 84 40 120 44 220 20 156 -36 299 -190 317 -341 13
-113 -58 -240 -231 -414 -91 -92 -407 -339 -432 -339 -8 0 5 23 31 55 62 77
211 304 237 362 13 30 23 77 26 125 4 69 2 84 -23 133 -43 90 -124 131 -276
142 -228 16 -471 -54 -828 -238 -162 -83 -197 -92 -250 -64 -51 26 -71 86 -71
211 0 219 36 628 85 983 20 141 20 146 -4 129 -71 -50 -309 -352 -441 -560
-181 -285 -209 -365 -230 -647 -12 -165 -26 -207 -86 -261 -22 -20 -71 -49
-109 -64 -187 -76 -260 -125 -540 -365 -47 -40 -89 -71 -92 -67 -9 8 109 248
220 446 160 289 304 505 535 805 184 239 301 376 632 740 80 88 150 167 157
175 6 8 43 198 82 421 39 224 80 441 91 482 45 176 103 224 259 215 119 -7
258 -76 434 -215 50 -40 95 -73 98 -73 3 0 64 38 136 84 71 46 222 137 334
201 112 65 223 130 246 147 83 56 121 69 204 66 65 -3 81 -7 113 -32z"/>
<path d="M2810 3843 c-95 -46 -193 -190 -276 -404 -34 -89 -96 -310 -89 -317
2 -2 88 70 192 160 103 90 257 221 341 292 83 71 152 135 152 142 0 19 -94 92
-155 120 -59 28 -116 30 -165 7z"/>
</g>
</svg>
